<?xml version="1.0" encoding="UTF-8" standalone="no"?>
<!-- Created with Inkscape (http://www.inkscape.org/) -->

<svg
   width="128.00002"
   height="127.99999"
   viewBox="0 0 33.866671 33.866665"
   version="1.1"
   id="svg1"
   inkscape:version="1.4.2 (ebf0e940d0, 2025-05-08)"
   sodipodi:docname="fastreader.svg"
   xmlns:inkscape="http://www.inkscape.org/namespaces/inkscape"
   xmlns:sodipodi="http://sodipodi.sourceforge.net/DTD/sodipodi-0.dtd"
   xmlns="http://www.w3.org/2000/svg"
   xmlns:svg="http://www.w3.org/2000/svg">
  <sodipodi:namedview
     id="namedview1"
     pagecolor="#ffffff"
     bordercolor="currentColor"
     borderopacity="0.25"
     inkscape:showpageshadow="2"
     inkscape:pageopacity="0.0"
     inkscape:pagecheckerboard="0"
     inkscape:deskcolor="#d1d1d1"
     inkscape:document-units="px"
     inkscape:zoom="7.2906251"
     inkscape:cx="71.050149"
     inkscape:cy="58.156879"
     inkscape:window-width="1920"
     inkscape:window-height="1134"
     inkscape:window-x="0"
     inkscape:window-y="0"
     inkscape:window-maximized="1"
     inkscape:current-layer="layer1"
     showgrid="false"
     showguides="true"
     inkscape:lockguides="false">
    <sodipodi:guide
       position="-5.6826377,22.362789"
       orientation="0,-1"
       id="guide246"
       inkscape:locked="false" />
    <sodipodi:guide
       position="17.099322,9.7669491"
       orientation="0,-1"
       id="guide398"
       inkscape:locked="false" />
    <inkscape:grid
       type="xygrid"
       id="grid402"
       originx="0"
       originy="0"
       spacingy="1"
       spacingx="1"
       units="px" />
  </sodipodi:namedview>
  <defs
     id="defs1">
    <inkscape:path-effect
       effect="fillet_chamfer"
       id="path-effect2"
       is_visible="true"
       lpeversion="1"
       nodesatellites_param="F,0,1,1,0,0.22896565,0,1 @ F,0,0,1,0,1.4482862,0,1 @ F,0,1,1,0,0.22896565,0,1 @ F,0,1,1,0,0.22896565,0,1 @ F,0,0,1,0,1.4482862,0,1 @ F,0,0,1,0,0.22896565,0,1"
       radius="0"
       unit="px"
       method="auto"
       mode="F"
       chamfer_steps="1"
       flexible="false"
       use_knot_distance="true"
       apply_no_radius="true"
       apply_with_radius="true"
       only_selected="false"
       hide_knots="false" />
    <inkscape:path-effect
       effect="fillet_chamfer"
       id="path-effect1"
       is_visible="true"
       lpeversion="1"
       nodesatellites_param="F,0,0,1,0,0,0,1 @ F,0,0,1,0,0.7244991,0,1 @ F,0,0,1,0,0.93415974,0,1 @ F,0,0,1,0,0.93415974,0,1 @ F,0,0,1,0,0.93415974,0,1 @ F,0,0,1,0,0.93415974,0,1 @ F,0,0,1,0,0.41737651,0,1 @ F,0,1,1,0,0,0,1 @ F,0,0,1,0,0.93415974,0,1 @ F,0,0,1,0,0.93415974,0,1 @ F,0,0,1,0,0.93415974,0,1 @ F,0,0,1,0,0.93415974,0,1 @ F,0,0,1,0,0.93415974,0,1 @ F,0,0,1,0,0.93415974,0,1"
       radius="0"
       unit="px"
       method="auto"
       mode="F"
       chamfer_steps="1"
       flexible="false"
       use_knot_distance="true"
       apply_no_radius="true"
       apply_with_radius="true"
       only_selected="false"
       hide_knots="false" />
    <inkscape:path-effect
       effect="bspline"
       id="path-effect536"
       is_visible="true"
       lpeversion="1"
       weight="33.333333"
       steps="2"
       helper_size="0"
       apply_no_weight="true"
       apply_with_weight="true"
       only_selected="false" />
    <inkscape:path-effect
       effect="fillet_chamfer"
       id="path-effect1-7"
       is_visible="true"
       lpeversion="1"
       nodesatellites_param="F,0,0,1,0,0,0,1 @ F,0,0,1,0,0.7244991,0,1 @ F,0,0,1,0,0.93415974,0,1 @ F,0,0,1,0,0.41737651,0,1 @ F,0,1,1,0,0,0,1 @ F,0,0,1,0,0.93415974,0,1 @ F,0,0,1,0,0.93415974,0,1 @ F,0,0,1,0,0.93415974,0,1 @ F,0,0,1,0,0.93415974,0,1 @ F,0,0,1,0,0.93415974,0,1 @ F,0,0,1,0,0.93415974,0,1"
       radius="0"
       unit="px"
       method="auto"
       mode="F"
       chamfer_steps="1"
       flexible="false"
       use_knot_distance="true"
       apply_no_radius="true"
       apply_with_radius="true"
       only_selected="false"
       hide_knots="false" />
    <inkscape:path-effect
       effect="fillet_chamfer"
       id="path-effect1-9"
       is_visible="true"
       lpeversion="1"
       nodesatellites_param="F,0,0,1,0,0,0,1 @ F,0,0,1,0,0.7244991,0,1 @ F,0,0,1,0,0.93415974,0,1 @ F,0,1,1,0,0,0,1 @ F,0,0,1,0,0.93415974,0,1 @ F,0,0,1,0,0.93415974,0,1 @ F,0,0,1,0,0.93415974,0,1 @ F,0,0,1,0,0.93415974,0,1 @ F,0,0,1,0,0.93415974,0,1 @ F,0,0,1,0,0.93415974,0,1"
       radius="0"
       unit="px"
       method="auto"
       mode="F"
       chamfer_steps="1"
       flexible="false"
       use_knot_distance="true"
       apply_no_radius="true"
       apply_with_radius="true"
       only_selected="false"
       hide_knots="false" />
    <inkscape:path-effect
       effect="fillet_chamfer"
       id="path-effect1-3"
       is_visible="true"
       lpeversion="1"
       nodesatellites_param="F,0,0,1,0,0,0,1 @ F,0,0,1,0,0.7244991,0,1 @ F,0,0,1,0,0.93415974,0,1 @ F,0,0,1,0,0.93415974,0,1 @ F,0,0,1,0,0,0,1 @ F,0,1,1,0,0,0,1 @ F,0,1,1,0,0,0,1 @ F,0,1,1,0,0,0,1 @ F,0,1,1,0,0,0,1 @ F,0,1,1,0,0,0,1 @ F,0,1,1,0,0,0,1 @ F,0,0,1,0,0.93415974,0,1 @ F,0,0,1,0,0.93415974,0,1 @ F,0,0,1,0,0.93415974,0,1"
       radius="0"
       unit="px"
       method="auto"
       mode="F"
       chamfer_steps="1"
       flexible="false"
       use_knot_distance="true"
       apply_no_radius="true"
       apply_with_radius="true"
       only_selected="false"
       hide_knots="false" />
    <inkscape:path-effect
       effect="fillet_chamfer"
       id="path-effect1-3-1"
       is_visible="true"
       lpeversion="1"
       nodesatellites_param="F,0,0,1,0,0,0,1 @ F,0,0,1,0,0.7244991,0,1 @ F,0,0,1,0,0.93415974,0,1 @ F,0,0,1,0,0.93415974,0,1 @ F,0,0,1,0,0,0,1 @ F,0,1,1,0,0,0,1 @ F,0,1,1,0,0,0,1 @ F,0,1,1,0,0,0,1 @ F,0,1,1,0,0,0,1 @ F,0,1,1,0,0,0,1 @ F,0,1,1,0,0,0,1 @ F,0,0,1,0,0.93415974,0,1 @ F,0,0,1,0,0.93415974,0,1 @ F,0,0,1,0,0.93415974,0,1"
       radius="0"
       unit="px"
       method="auto"
       mode="F"
       chamfer_steps="1"
       flexible="false"
       use_knot_distance="true"
       apply_no_radius="true"
       apply_with_radius="true"
       only_selected="false"
       hide_knots="false" />
    <inkscape:path-effect
       effect="fillet_chamfer"
       id="path-effect1-3-7"
       is_visible="true"
       lpeversion="1"
       nodesatellites_param="F,0,0,1,0,0,0,1 @ F,0,0,1,0,0.7244991,0,1 @ F,0,0,1,0,0.93415974,0,1 @ F,0,0,1,0,0.93415974,0,1 @ F,0,0,1,0,0,0,1 @ F,0,1,1,0,0,0,1 @ F,0,1,1,0,0,0,1 @ F,0,1,1,0,0,0,1 @ F,0,1,1,0,0,0,1 @ F,0,1,1,0,0,0,1 @ F,0,1,1,0,0,0,1 @ F,0,0,1,0,0.93415974,0,1 @ F,0,0,1,0,0.93415974,0,1 @ F,0,0,1,0,0.93415974,0,1"
       radius="0"
       unit="px"
       method="auto"
       mode="F"
       chamfer_steps="1"
       flexible="false"
       use_knot_distance="true"
       apply_no_radius="true"
       apply_with_radius="true"
       only_selected="false"
       hide_knots="false" />
    <inkscape:path-effect
       effect="fillet_chamfer"
       id="path-effect1-3-9"
       is_visible="true"
       lpeversion="1"
       nodesatellites_param="F,0,0,1,0,0,0,1 @ F,0,0,1,0,0.55690608,0,1 @ F,0,0,1,0,0.93415974,0,1 @ F,0,0,1,0,0.93415974,0,1 @ F,0,0,1,0,0.85782281,0,1 @ F,0,0,1,0,0.83884205,0,1 @ F,0,1,1,0,0.65421709,0,1 @ F,0,0,1,0,0,0,1 @ F,0,0,1,0,0.65421709,0,1 @ F,0,0,1,0,0.83884205,0,1 @ F,0,0,1,0,0.83884205,0,1 @ F,0,0,1,0,0.93415974,0,1 @ F,0,0,1,0,0.93415974,0,1 @ F,0,0,1,0,0.55690608,0,1"
       radius="0"
       unit="px"
       method="auto"
       mode="F"
       chamfer_steps="1"
       flexible="false"
       use_knot_distance="true"
       apply_no_radius="true"
       apply_with_radius="true"
       only_selected="false"
       hide_knots="false" />
    <inkscape:path-effect
       effect="fillet_chamfer"
       id="path-effect2-3"
       is_visible="true"
       lpeversion="1"
       nodesatellites_param="F,0,0,1,0,0,0,1 @ F,0,0,1,0,1.4482862,0,1 @ F,0,0,1,0,0,0,1 @ F,0,0,1,0,0,0,1 @ F,0,1,1,0,1.4482862,0,1 @ F,0,0,1,0,0,0,1"
       radius="0"
       unit="px"
       method="auto"
       mode="F"
       chamfer_steps="1"
       flexible="false"
       use_knot_distance="true"
       apply_no_radius="true"
       apply_with_radius="true"
       only_selected="false"
       hide_knots="false" />
    <inkscape:path-effect
       effect="fillet_chamfer"
       id="path-effect2-1"
       is_visible="true"
       lpeversion="1"
       nodesatellites_param="F,0,0,1,0,0,0,1 @ F,0,0,1,0,1.4482862,0,1 @ F,0,0,1,0,0,0,1 @ F,0,0,1,0,0,0,1 @ F,0,1,1,0,1.4482862,0,1 @ F,0,0,1,0,0,0,1"
       radius="0"
       unit="px"
       method="auto"
       mode="F"
       chamfer_steps="1"
       flexible="false"
       use_knot_distance="true"
       apply_no_radius="true"
       apply_with_radius="true"
       only_selected="false"
       hide_knots="false" />
    <inkscape:path-effect
       effect="fillet_chamfer"
       id="path-effect2-2"
       is_visible="true"
       lpeversion="1"
       nodesatellites_param="F,0,0,1,0,0,0,1 @ F,0,0,1,0,1.4482862,0,1 @ F,0,0,1,0,0,0,1 @ F,0,0,1,0,0,0,1 @ F,0,1,1,0,1.4482862,0,1 @ F,0,0,1,0,0,0,1"
       radius="0"
       unit="px"
       method="auto"
       mode="F"
       chamfer_steps="1"
       flexible="false"
       use_knot_distance="true"
       apply_no_radius="true"
       apply_with_radius="true"
       only_selected="false"
       hide_knots="false" />
    <inkscape:path-effect
       effect="fillet_chamfer"
       id="path-effect2-28"
       is_visible="true"
       lpeversion="1"
       nodesatellites_param="F,0,0,1,0,0,0,1 @ F,0,0,1,0,1.4482862,0,1 @ F,0,0,1,0,0,0,1 @ F,0,0,1,0,0,0,1 @ F,0,1,1,0,1.4482862,0,1 @ F,0,0,1,0,0,0,1"
       radius="0"
       unit="px"
       method="auto"
       mode="F"
       chamfer_steps="1"
       flexible="false"
       use_knot_distance="true"
       apply_no_radius="true"
       apply_with_radius="true"
       only_selected="false"
       hide_knots="false" />
    <inkscape:path-effect
       effect="fillet_chamfer"
       id="path-effect2-3-9"
       is_visible="true"
       lpeversion="1"
       nodesatellites_param="F,0,0,1,0,0,0,1 @ F,0,0,1,0,1.4482862,0,1 @ F,0,0,1,0,0,0,1 @ F,0,0,1,0,0,0,1 @ F,0,1,1,0,1.4482862,0,1 @ F,0,0,1,0,0,0,1"
       radius="0"
       unit="px"
       method="auto"
       mode="F"
       chamfer_steps="1"
       flexible="false"
       use_knot_distance="true"
       apply_no_radius="true"
       apply_with_radius="true"
       only_selected="false"
       hide_knots="false" />
    <inkscape:path-effect
       effect="fillet_chamfer"
       id="path-effect2-1-7"
       is_visible="true"
       lpeversion="1"
       nodesatellites_param="F,0,0,1,0,0,0,1 @ F,0,0,1,0,1.4482862,0,1 @ F,0,0,1,0,0,0,1 @ F,0,0,1,0,0,0,1 @ F,0,1,1,0,1.4482862,0,1 @ F,0,0,1,0,0,0,1"
       radius="0"
       unit="px"
       method="auto"
       mode="F"
       chamfer_steps="1"
       flexible="false"
       use_knot_distance="true"
       apply_no_radius="true"
       apply_with_radius="true"
       only_selected="false"
       hide_knots="false" />
    <inkscape:path-effect
       effect="fillet_chamfer"
       id="path-effect2-2-3"
       is_visible="true"
       lpeversion="1"
       nodesatellites_param="F,0,0,1,0,0,0,1 @ F,0,0,1,0,1.4482862,0,1 @ F,0,0,1,0,0,0,1 @ F,0,0,1,0,0,0,1 @ F,0,1,1,0,1.4482862,0,1 @ F,0,0,1,0,0,0,1"
       radius="0"
       unit="px"
       method="auto"
       mode="F"
       chamfer_steps="1"
       flexible="false"
       use_knot_distance="true"
       apply_no_radius="true"
       apply_with_radius="true"
       only_selected="false"
       hide_knots="false" />
    <inkscape:path-effect
       effect="fillet_chamfer"
       id="path-effect2-0"
       is_visible="true"
       lpeversion="1"
       nodesatellites_param="F,0,0,1,0,0,0,1 @ F,0,0,1,0,1.4482862,0,1 @ F,0,0,1,0,0,0,1 @ F,0,0,1,0,0,0,1 @ F,0,1,1,0,1.4482862,0,1 @ F,0,0,1,0,0,0,1"
       radius="0"
       unit="px"
       method="auto"
       mode="F"
       chamfer_steps="1"
       flexible="false"
       use_knot_distance="true"
       apply_no_radius="true"
       apply_with_radius="true"
       only_selected="false"
       hide_knots="false" />
    <inkscape:path-effect
       effect="fillet_chamfer"
       id="path-effect2-26"
       is_visible="true"
       lpeversion="1"
       nodesatellites_param="F,0,0,1,0,0,0,1 @ F,0,0,1,0,1.4482862,0,1 @ F,0,0,1,0,0,0,1 @ F,0,0,1,0,0,0,1 @ F,0,1,1,0,1.4482862,0,1 @ F,0,0,1,0,0,0,1"
       radius="0"
       unit="px"
       method="auto"
       mode="F"
       chamfer_steps="1"
       flexible="false"
       use_knot_distance="true"
       apply_no_radius="true"
       apply_with_radius="true"
       only_selected="false"
       hide_knots="false" />
    <inkscape:path-effect
       effect="fillet_chamfer"
       id="path-effect2-02"
       is_visible="true"
       lpeversion="1"
       nodesatellites_param="F,0,0,1,0,0,0,1 @ F,0,0,1,0,1.4482862,0,1 @ F,0,0,1,0,0,0,1 @ F,0,0,1,0,0,0,1 @ F,0,1,1,0,1.4482862,0,1 @ F,0,0,1,0,0,0,1"
       radius="0"
       unit="px"
       method="auto"
       mode="F"
       chamfer_steps="1"
       flexible="false"
       use_knot_distance="true"
       apply_no_radius="true"
       apply_with_radius="true"
       only_selected="false"
       hide_knots="false" />
    <inkscape:path-effect
       effect="fillet_chamfer"
       id="path-effect2-7"
       is_visible="true"
       lpeversion="1"
       nodesatellites_param="F,0,1,1,0,0.22896565,0,1 @ F,0,0,1,0,1.4482862,0,1 @ F,0,1,1,0,0.22896565,0,1 @ F,0,1,1,0,0.22896565,0,1 @ F,0,0,1,0,1.4482862,0,1 @ F,0,0,1,0,0.22896565,0,1"
       radius="0"
       unit="px"
       method="auto"
       mode="F"
       chamfer_steps="1"
       flexible="false"
       use_knot_distance="true"
       apply_no_radius="true"
       apply_with_radius="true"
       only_selected="false"
       hide_knots="false" />
    <inkscape:path-effect
       effect="fillet_chamfer"
       id="path-effect2-9"
       is_visible="true"
       lpeversion="1"
       nodesatellites_param="F,0,1,1,0,0.22896565,0,1 @ F,0,0,1,0,1.4482862,0,1 @ F,0,1,1,0,0.22896565,0,1 @ F,0,1,1,0,0.22896565,0,1 @ F,0,0,1,0,1.4482862,0,1 @ F,0,0,1,0,0.22896565,0,1"
       radius="0"
       unit="px"
       method="auto"
       mode="F"
       chamfer_steps="1"
       flexible="false"
       use_knot_distance="true"
       apply_no_radius="true"
       apply_with_radius="true"
       only_selected="false"
       hide_knots="false" />
    <inkscape:path-effect
       effect="fillet_chamfer"
       id="path-effect2-36"
       is_visible="true"
       lpeversion="1"
       nodesatellites_param="F,0,1,1,0,0.22896565,0,1 @ F,0,0,1,0,1.4482862,0,1 @ F,0,1,1,0,0.22896565,0,1 @ F,0,1,1,0,0.22896565,0,1 @ F,0,0,1,0,1.4482862,0,1 @ F,0,0,1,0,0.22896565,0,1"
       radius="0"
       unit="px"
       method="auto"
       mode="F"
       chamfer_steps="1"
       flexible="false"
       use_knot_distance="true"
       apply_no_radius="true"
       apply_with_radius="true"
       only_selected="false"
       hide_knots="false" />
    <inkscape:path-effect
       effect="fillet_chamfer"
       id="path-effect2-79"
       is_visible="true"
       lpeversion="1"
       nodesatellites_param="F,0,1,1,0,0.22896565,0,1 @ F,0,0,1,0,1.4482862,0,1 @ F,0,1,1,0,0.22896565,0,1 @ F,0,1,1,0,0.22896565,0,1 @ F,0,0,1,0,1.4482862,0,1 @ F,0,0,1,0,0.22896565,0,1"
       radius="0"
       unit="px"
       method="auto"
       mode="F"
       chamfer_steps="1"
       flexible="false"
       use_knot_distance="true"
       apply_no_radius="true"
       apply_with_radius="true"
       only_selected="false"
       hide_knots="false" />
    <inkscape:path-effect
       effect="fillet_chamfer"
       id="path-effect2-7-2"
       is_visible="true"
       lpeversion="1"
       nodesatellites_param="F,0,1,1,0,0.22896565,0,1 @ F,0,0,1,0,1.4482862,0,1 @ F,0,1,1,0,0.22896565,0,1 @ F,0,1,1,0,0.22896565,0,1 @ F,0,0,1,0,1.4482862,0,1 @ F,0,0,1,0,0.22896565,0,1"
       radius="0"
       unit="px"
       method="auto"
       mode="F"
       chamfer_steps="1"
       flexible="false"
       use_knot_distance="true"
       apply_no_radius="true"
       apply_with_radius="true"
       only_selected="false"
       hide_knots="false" />
    <inkscape:path-effect
       effect="fillet_chamfer"
       id="path-effect2-9-0"
       is_visible="true"
       lpeversion="1"
       nodesatellites_param="F,0,1,1,0,0.22896565,0,1 @ F,0,0,1,0,1.4482862,0,1 @ F,0,1,1,0,0.22896565,0,1 @ F,0,1,1,0,0.22896565,0,1 @ F,0,0,1,0,1.4482862,0,1 @ F,0,0,1,0,0.22896565,0,1"
       radius="0"
       unit="px"
       method="auto"
       mode="F"
       chamfer_steps="1"
       flexible="false"
       use_knot_distance="true"
       apply_no_radius="true"
       apply_with_radius="true"
       only_selected="false"
       hide_knots="false" />
    <inkscape:path-effect
       effect="fillet_chamfer"
       id="path-effect2-36-2"
       is_visible="true"
       lpeversion="1"
       nodesatellites_param="F,0,1,1,0,0.22896565,0,1 @ F,0,0,1,0,1.4482862,0,1 @ F,0,1,1,0,0.22896565,0,1 @ F,0,1,1,0,0.22896565,0,1 @ F,0,0,1,0,1.4482862,0,1 @ F,0,0,1,0,0.22896565,0,1"
       radius="0"
       unit="px"
       method="auto"
       mode="F"
       chamfer_steps="1"
       flexible="false"
       use_knot_distance="true"
       apply_no_radius="true"
       apply_with_radius="true"
       only_selected="false"
       hide_knots="false" />
  </defs>
  <g
     inkscape:label="Layer 1"
     inkscape:groupmode="layer"
     id="layer1"
     transform="translate(-32.279167,-138.64166)">
    <path
       style="fill:#f4e3d7;stroke:#f4e3d7;stroke-width:0.264583px;stroke-linecap:butt;stroke-linejoin:miter;stroke-opacity:1"
       d="m 48.683334,164.83541 2.107317,-1.89659 c 0.297414,-0.26767 0.862885,-0.48449 1.263015,-0.48433 1.387903,5.3e-4 2.775295,5.6e-4 4.162175,7e-5 0.515922,-1.8e-4 1.261482,-0.26075 1.664268,-0.58315 0.327699,-0.26229 0.592936,-0.89382 0.593061,-1.40974 6.63e-4,-2.72795 6.63e-4,-5.45657 0,-8.18585 -1.26e-4,-0.51592 -0.295992,-1.2299 -0.660803,-1.59471 -6.05e-4,-6.1e-4 -0.0012,-0.001 -0.0018,-0.002 -0.364811,-0.36481 -1.078788,-0.66033 -1.59471,-0.66015 -1.489176,5.3e-4 -2.978942,4.6e-4 -4.469298,-2e-4 -0.23051,-10e-5 -0.537005,0.14335 -0.684574,0.32044 l -2.378635,2.85436 -2.047799,-2.45736 c -0.330286,-0.39634 -1.016273,-0.71742 -1.532195,-0.71724 -1.317043,4.7e-4 -2.634548,4.7e-4 -3.952513,0 -0.515922,-1.8e-4 -1.22915,0.29609 -1.593959,0.6609 -6.06e-4,6.1e-4 -0.0012,0.001 -0.0018,0.002 -0.364812,0.36481 -0.661172,1.07804 -0.661046,1.59396 6.63e-4,2.72928 6.63e-4,5.4579 0,8.18585 -1.25e-4,0.51592 0.326254,1.19553 0.729132,1.51781 0.327773,0.26221 1.01177,0.4749 1.527692,0.47508 1.317965,4.7e-4 2.63547,4.7e-4 3.952513,0 0.515922,-1.8e-4 1.245034,0.27939 1.628516,0.62452 z"
       id="path244"
       sodipodi:nodetypes="ccccccccccccccc"
       inkscape:original-d="m 48.683334,164.83541 2.645833,-2.38125 c 1.941278,0.001 3.881556,0.001 5.820834,0 0.441972,-0.35178 0.882944,-0.70455 1.322916,-1.05833 10e-4,-3.35039 10e-4,-6.70178 0,-10.05417 -0.439972,-0.43997 -0.880944,-0.88095 -1.322916,-1.32292 -1.939278,0.001 -3.879556,0.001 -5.820834,0 l -2.645833,3.175 -2.645834,-3.175 c -1.939278,0.001 -3.879555,0.001 -5.820833,0 -0.439972,0.44197 -0.880945,0.88295 -1.322917,1.32292 0.001,3.35239 0.001,6.70378 0,10.05417 0.441972,0.35378 0.882945,0.70655 1.322917,1.05833 1.941278,0.001 3.881555,0.001 5.820833,0 z"
       inkscape:path-effect="#path-effect1" />
    <path
       style="fill:#e9c6af;stroke:#e9c6af;stroke-width:0.264583px;stroke-linecap:butt;stroke-linejoin:miter;stroke-opacity:1"
       d="m 48.683334,164.83541 2.107317,-1.89659 c 0.297414,-0.26767 0.862885,-0.48449 1.263015,-0.48433 1.387903,5.3e-4 2.775295,5.6e-4 4.162175,7e-5 0.515922,-1.8e-4 1.261482,-0.26075 1.664268,-0.58315 0.327699,-0.26229 0.592182,-0.89382 0.594222,-1.40974 0.005,-1.26254 0.02006,2.27128 -0.0014,2.23054 l -1.322916,1.05834 h -5.820834 l -2.645833,2.38125 -2.645834,-2.38125 h -5.820833 l -1.322929,-1.05834 c 0,0 7.55e-4,-3.50793 3.05e-4,-2.23041 -1.82e-4,0.51585 0.326214,1.1954 0.729092,1.51768 0.327773,0.26221 1.01177,0.4749 1.527692,0.47508 1.317965,4.7e-4 2.63547,4.7e-4 3.952513,0 0.515922,-1.8e-4 1.245034,0.27939 1.628516,0.62452 z"
       id="path244-6"
       sodipodi:nodetypes="ccccccccccccccc"
       transform="translate(1.2073046e-5,6.8321183e-5)"
       inkscape:original-d="m 48.683334,164.83541 2.645833,-2.38125 c 1.941278,0.001 3.881556,0.001 5.820834,0 0.441972,-0.35178 0.882944,-0.70455 1.322916,-1.05833 10e-4,-3.35039 0.02473,1.3433 0,1.29638 l -1.322916,1.05834 h -5.820834 l -2.645833,2.38125 -2.645834,-2.38125 h -5.820833 l -1.322929,-1.05834 c 0,0 10e-4,-4.64677 1.2e-5,-1.29638 0.441972,0.35378 0.882945,0.70655 1.322917,1.05833 1.941278,0.001 3.881555,0.001 5.820833,0 z"
       inkscape:path-effect="#path-effect1-3" />
    <path
       style="fill:#000080;stroke:#000080;stroke-width:0.264583px;stroke-linecap:butt;stroke-linejoin:miter;stroke-opacity:1"
       d="m 48.683334,164.83541 2.231888,-2.0087 c 0.228616,-0.20575 0.66328,-0.37242 0.970851,-0.37229 1.443809,6e-4 2.887065,6.5e-4 4.329768,1.4e-4 0.515922,-1.8e-4 1.261482,-0.26075 1.664268,-0.58315 0.327699,-0.26229 0.592395,-0.89382 0.594118,-1.40975 0.0031,-0.92016 0.01033,-0.0337 0.0099,0.73947 -2.68e-4,0.47291 -0.311098,1.09612 -0.681043,1.39208 a 2.3877774,2.3877774 160.70001 0 1 -1.491913,0.52246 h -4.327775 a 1.7048622,1.7048622 159.00639 0 0 -1.140493,0.43765 l -2.159557,1.9436 -2.159558,-1.9436 a 1.7048627,1.7048627 20.993603 0 0 -1.140493,-0.43765 h -4.327774 a 2.3913607,2.3913607 19.329862 0 1 -1.493868,-0.52402 l -0.01288,-0.0103 c -0.361761,-0.28941 -0.654932,-0.89958 -0.654822,-1.36286 1.87e-4,-0.78319 3.92e-4,-1.70076 9.1e-5,-0.75676 -1.64e-4,0.51589 0.326224,1.19547 0.729102,1.51775 0.327773,0.26221 1.01177,0.4749 1.527692,0.47508 1.443809,5.1e-4 2.887064,4.6e-4 4.329767,-1.4e-4 0.307571,-1.3e-4 0.742236,0.16654 0.970851,0.37229 z"
       id="path244-6-7"
       sodipodi:nodetypes="ccccccccccccccc"
       transform="translate(2.8741217e-4,1.3218698)"
       inkscape:original-d="m 48.683334,164.83541 2.645833,-2.38125 c 1.941278,0.001 3.881556,0.001 5.820834,0 0.441972,-0.35178 0.882944,-0.70455 1.322916,-1.05833 10e-4,-3.35039 0.02473,0.70842 0,0.6615 l -1.322916,1.05834 h -5.820834 l -2.645833,2.38125 -2.645834,-2.38125 h -5.820833 l -1.322929,-1.05834 c 0,0 10e-4,-4.01189 1.2e-5,-0.6615 0.441972,0.35378 0.882945,0.70655 1.322917,1.05833 1.941278,0.001 3.881555,0.001 5.820833,0 z"
       inkscape:path-effect="#path-effect1-3-9" />
    <path
       style="fill:none;stroke:#000000;stroke-width:0.264583px;stroke-linecap:butt;stroke-linejoin:miter;stroke-opacity:1"
       d="m 48.683334,152.92916 v 13.89063"
       id="path242"
       sodipodi:nodetypes="cc" />
    <path
       style="fill:#000000;stroke:#000000;stroke-width:0.264583px;stroke-linecap:butt;stroke-linejoin:miter;stroke-opacity:1"
       d="m 39.916466,151.68562 h 4.672748 a 2.8965697,2.8965697 26.565073 0 1 2.317257,1.15863 l 0.58115,0.77487 a 0.68689782,0.68689782 71.565073 0 1 0.137379,0.41214 v 0.60039 a 0.07632208,0.07632208 161.56501 0 1 -0.13738,0.0458 l -0.581147,-0.77486 a 2.8965779,2.8965779 26.565008 0 0 -2.317259,-1.15863 H 39.916466 A 0.22896565,0.22896565 45 0 1 39.6875,152.51499 v -0.6004 a 0.22896565,0.22896565 135 0 1 0.228966,-0.22897 z"
       id="path540"
       sodipodi:nodetypes="ccccccc"
       transform="translate(0.39687524,-0.21166838)"
       inkscape:original-d="m 39.6875,151.68562 h 6.35 l 1.5875,2.11667 v 1.05833 l -1.5875,-2.11666 h -6.35 z"
       inkscape:path-effect="#path-effect2" />
    <path
       style="fill:#000000;stroke:#000000;stroke-width:0.264583px;stroke-linecap:butt;stroke-linejoin:miter;stroke-opacity:1"
       d="m 39.916466,151.68562 h 4.672748 a 2.8965697,2.8965697 26.565073 0 1 2.317257,1.15863 l 0.58115,0.77487 a 0.68689782,0.68689782 71.565073 0 1 0.137379,0.41214 v 0.60039 a 0.07632208,0.07632208 161.56501 0 1 -0.13738,0.0458 l -0.581147,-0.77486 a 2.8965779,2.8965779 26.565008 0 0 -2.317259,-1.15863 H 39.916466 A 0.22896565,0.22896565 45 0 1 39.6875,152.51499 v -0.6004 a 0.22896565,0.22896565 135 0 1 0.228966,-0.22897 z"
       id="path540-5"
       sodipodi:nodetypes="ccccccc"
       transform="translate(0.39687524,2.434165)"
       inkscape:original-d="m 39.6875,151.68562 h 6.35 l 1.5875,2.11667 v 1.05833 l -1.5875,-2.11666 h -6.35 z"
       inkscape:path-effect="#path-effect2-7" />
    <path
       style="fill:#000000;stroke:#000000;stroke-width:0.264583px;stroke-linecap:butt;stroke-linejoin:miter;stroke-opacity:1"
       d="m 39.916466,151.68562 h 4.672748 a 2.8965697,2.8965697 26.565073 0 1 2.317257,1.15863 l 0.58115,0.77487 a 0.68689782,0.68689782 71.565073 0 1 0.137379,0.41214 v 0.60039 a 0.07632208,0.07632208 161.56501 0 1 -0.13738,0.0458 l -0.581147,-0.77486 a 2.8965779,2.8965779 26.565008 0 0 -2.317259,-1.15863 H 39.916466 A 0.22896565,0.22896565 45 0 1 39.6875,152.51499 v -0.6004 a 0.22896565,0.22896565 135 0 1 0.228966,-0.22897 z"
       id="path540-7"
       sodipodi:nodetypes="ccccccc"
       transform="translate(0.39687524,5.0799983)"
       inkscape:original-d="m 39.6875,151.68562 h 6.35 l 1.5875,2.11667 v 1.05833 l -1.5875,-2.11666 h -6.35 z"
       inkscape:path-effect="#path-effect2-9" />
    <path
       style="fill:#000000;stroke:#000000;stroke-width:0.264583px;stroke-linecap:butt;stroke-linejoin:miter;stroke-opacity:1"
       d="m 39.916466,151.68562 h 4.672748 a 2.8965697,2.8965697 26.565073 0 1 2.317257,1.15863 l 0.58115,0.77487 a 0.68689782,0.68689782 71.565073 0 1 0.137379,0.41214 v 0.60039 a 0.07632208,0.07632208 161.56501 0 1 -0.13738,0.0458 l -0.581147,-0.77486 a 2.8965779,2.8965779 26.565008 0 0 -2.317259,-1.15863 H 39.916466 A 0.22896565,0.22896565 45 0 1 39.6875,152.51499 v -0.6004 a 0.22896565,0.22896565 135 0 1 0.228966,-0.22897 z"
       id="path540-26"
       sodipodi:nodetypes="ccccccc"
       transform="translate(0.39687524,7.7258317)"
       inkscape:original-d="m 39.6875,151.68562 h 6.35 l 1.5875,2.11667 v 1.05833 l -1.5875,-2.11666 h -6.35 z"
       inkscape:path-effect="#path-effect2-36" />
    <g
       id="layer1-5"
       transform="translate(-0.44046646,1.2241588)">
      <path
         style="fill:none;stroke:#000000;stroke-width:0.264583"
         d="m 47.000929,153.71311 0.699371,-5.35019 c -9.469227,-10.35859 16.271819,-9.3444 2.098113,0.17484 z"
         id="path1"
         sodipodi:nodetypes="cccc" />
    </g>
    <rect
       style="fill:#000000;stroke:#000000;stroke-width:0.277066"
       id="rect1"
       width="5.8083501"
       height="2.3687668"
       x="46.57291"
       y="144.07185"
       ry="0.35077932" />
    <path
       style="fill:#000000;stroke:#000000;stroke-width:0.264583px;stroke-linecap:butt;stroke-linejoin:miter;stroke-opacity:1"
       d="m 39.916466,151.68562 h 4.672748 a 2.8965697,2.8965697 26.565073 0 1 2.317257,1.15863 l 0.58115,0.77487 a 0.68689782,0.68689782 71.565073 0 1 0.137379,0.41214 v 0.60039 a 0.07632208,0.07632208 161.56501 0 1 -0.13738,0.0458 l -0.581147,-0.77486 a 2.8965779,2.8965779 26.565008 0 0 -2.317259,-1.15863 H 39.916466 A 0.22896565,0.22896565 45 0 1 39.6875,152.51499 v -0.6004 a 0.22896565,0.22896565 135 0 1 0.228966,-0.22897 z"
       id="path540-59"
       sodipodi:nodetypes="ccccccc"
       transform="matrix(-1,0,0,1,97.234375,-0.21166838)"
       inkscape:original-d="m 39.6875,151.68562 h 6.35 l 1.5875,2.11667 v 1.05833 l -1.5875,-2.11666 h -6.35 z"
       inkscape:path-effect="#path-effect2-79" />
    <path
       style="fill:#000000;stroke:#000000;stroke-width:0.264583px;stroke-linecap:butt;stroke-linejoin:miter;stroke-opacity:1"
       d="m 39.916466,151.68562 h 4.672748 a 2.8965697,2.8965697 26.565073 0 1 2.317257,1.15863 l 0.58115,0.77487 a 0.68689782,0.68689782 71.565073 0 1 0.137379,0.41214 v 0.60039 a 0.07632208,0.07632208 161.56501 0 1 -0.13738,0.0458 l -0.581147,-0.77486 a 2.8965779,2.8965779 26.565008 0 0 -2.317259,-1.15863 H 39.916466 A 0.22896565,0.22896565 45 0 1 39.6875,152.51499 v -0.6004 a 0.22896565,0.22896565 135 0 1 0.228966,-0.22897 z"
       id="path540-5-2"
       sodipodi:nodetypes="ccccccc"
       transform="matrix(-1,0,0,1,97.234375,2.434165)"
       inkscape:original-d="m 39.6875,151.68562 h 6.35 l 1.5875,2.11667 v 1.05833 l -1.5875,-2.11666 h -6.35 z"
       inkscape:path-effect="#path-effect2-7-2" />
    <path
       style="fill:#000000;stroke:#000000;stroke-width:0.264583px;stroke-linecap:butt;stroke-linejoin:miter;stroke-opacity:1"
       d="m 39.916466,151.68562 h 4.672748 a 2.8965697,2.8965697 26.565073 0 1 2.317257,1.15863 l 0.58115,0.77487 a 0.68689782,0.68689782 71.565073 0 1 0.137379,0.41214 v 0.60039 a 0.07632208,0.07632208 161.56501 0 1 -0.13738,0.0458 l -0.581147,-0.77486 a 2.8965779,2.8965779 26.565008 0 0 -2.317259,-1.15863 H 39.916466 A 0.22896565,0.22896565 45 0 1 39.6875,152.51499 v -0.6004 a 0.22896565,0.22896565 135 0 1 0.228966,-0.22897 z"
       id="path540-7-2"
       sodipodi:nodetypes="ccccccc"
       transform="matrix(-1,0,0,1,97.234375,5.0799984)"
       inkscape:original-d="m 39.6875,151.68562 h 6.35 l 1.5875,2.11667 v 1.05833 l -1.5875,-2.11666 h -6.35 z"
       inkscape:path-effect="#path-effect2-9-0" />
    <path
       style="fill:#000000;stroke:#000000;stroke-width:0.264583px;stroke-linecap:butt;stroke-linejoin:miter;stroke-opacity:1"
       d="m 39.916466,151.68562 h 4.672748 a 2.8965697,2.8965697 26.565073 0 1 2.317257,1.15863 l 0.58115,0.77487 a 0.68689782,0.68689782 71.565073 0 1 0.137379,0.41214 v 0.60039 a 0.07632208,0.07632208 161.56501 0 1 -0.13738,0.0458 l -0.581147,-0.77486 a 2.8965779,2.8965779 26.565008 0 0 -2.317259,-1.15863 H 39.916466 A 0.22896565,0.22896565 45 0 1 39.6875,152.51499 v -0.6004 a 0.22896565,0.22896565 135 0 1 0.228966,-0.22897 z"
       id="path540-26-8"
       sodipodi:nodetypes="ccccccc"
       transform="matrix(-1,0,0,1,97.234375,7.7258317)"
       inkscape:original-d="m 39.6875,151.68562 h 6.35 l 1.5875,2.11667 v 1.05833 l -1.5875,-2.11666 h -6.35 z"
       inkscape:path-effect="#path-effect2-36-2" />
  </g>
</svg>
